<?xml version="1.0" encoding="UTF-8" standalone="no"?>
<!-- Created with Inkscape (http://www.inkscape.org/) -->

<svg
   xmlns:dc="http://purl.org/dc/elements/1.1/"
   xmlns:cc="http://creativecommons.org/ns#"
   xmlns:rdf="http://www.w3.org/1999/02/22-rdf-syntax-ns#"
   xmlns:svg="http://www.w3.org/2000/svg"
   xmlns="http://www.w3.org/2000/svg"
   xmlns:xlink="http://www.w3.org/1999/xlink"
   xmlns:sodipodi="http://sodipodi.sourceforge.net/DTD/sodipodi-0.dtd"
   xmlns:inkscape="http://www.inkscape.org/namespaces/inkscape"
   width="192"
   height="192"
   id="svg2"
   version="1.1"
   inkscape:version="0.48.4 r9939"
   sodipodi:docname="drawing.svg"
   inkscape:export-filename="/home/yw07/path3262.svg.png"
   inkscape:export-xdpi="87.378639"
   inkscape:export-ydpi="87.378639">
  <defs
     id="defs4">
    <linearGradient
       inkscape:collect="always"
       id="linearGradient3204">
      <stop
         style="stop-color:#ffffff;stop-opacity:1;"
         offset="0"
         id="stop3206" />
      <stop
         style="stop-color:#ffffff;stop-opacity:0;"
         offset="1"
         id="stop3208" />
    </linearGradient>
    <linearGradient
       inkscape:collect="always"
       xlink:href="#linearGradient3204"
       id="linearGradient3210"
       x1="327.5"
       y1="325.36218"
       x2="480.25"
       y2="445.86218"
       gradientUnits="userSpaceOnUse"
       gradientTransform="translate(-240.5,259.5)" />
  </defs>
  <sodipodi:namedview
     id="base"
     pagecolor="#ffffff"
     bordercolor="#666666"
     borderopacity="1.0"
     inkscape:pageopacity="0.0"
     inkscape:pageshadow="2"
     inkscape:zoom="0.81439995"
     inkscape:cx="536.15962"
     inkscape:cy="267.09997"
     inkscape:document-units="px"
     inkscape:current-layer="layer1"
     showgrid="false"
     inkscape:window-width="1855"
     inkscape:window-height="1056"
     inkscape:window-x="65"
     inkscape:window-y="24"
     inkscape:window-maximized="1"
     fit-margin-top="0"
     fit-margin-left="0"
     fit-margin-right="0"
     fit-margin-bottom="0" />
  <metadata
     id="metadata7">
    <rdf:RDF>
      <cc:Work
         rdf:about="">
        <dc:format>image/svg+xml</dc:format>
        <dc:type
           rdf:resource="http://purl.org/dc/dcmitype/StillImage" />
        <dc:title></dc:title>
      </cc:Work>
    </rdf:RDF>
  </metadata>
  <g
     inkscape:label="Layer 1"
     inkscape:groupmode="layer"
     id="layer1"
     transform="translate(-86.499997,-514.36215)">
    <rect
       style="fill:url(#linearGradient3210);fill-opacity:1;stroke:#000000;stroke-width:0.99481863;stroke-opacity:1"
       id="rect3190"
       width="191.00519"
       height="191.00519"
       x="86.997406"
       y="514.85956"
       rx="23.875648"
       ry="23.875648" />
    <path
       style="fill:none;stroke:#000000;stroke-width:1px;stroke-linecap:butt;stroke-linejoin:miter;stroke-opacity:1"
       d="M 88.000001,578.36219 C 220.62709,540.61285 247.04062,603.25272 235,704.86218 l 0,0"
       id="path3238"
       inkscape:connector-curvature="0"
       sodipodi:nodetypes="ccc" />
    <path
       style="fill:none;stroke:#000000;stroke-width:1px;stroke-linecap:butt;stroke-linejoin:miter;stroke-opacity:1"
       d="m 194,573.86218 c 10.21583,-27.79738 19.07987,-24.5036 28,-22.5 3.63986,10.59411 -0.0916,17.36148 -7,24 4.5,0.5 8.5,-6 13.5,1.5 1.60979,4.5 -4.34404,11.5 -11.5,16"
       id="path3242"
       inkscape:connector-curvature="0"
       sodipodi:nodetypes="ccccc" />
    <path
       style="fill:#ff0000;fill-opacity:1;stroke:#000000;stroke-width:0.5;stroke-opacity:1"
       d="m 107.93572,704.82073 c -8.86301,-1.23679 -16.042444,-7.26098 -19.148234,-16.06709 -0.73594,-2.08667 -0.835489,-7.79116 -0.975691,-55.9103 -0.148656,-51.02066 -0.113515,-53.5996 0.733894,-53.85936 3.725141,-1.14189 20.059791,-5.0936 26.044911,-6.30083 15.46693,-3.11976 27.90532,-4.49894 40.59818,-4.50156 26.05194,-0.005 44.52457,6.40394 58.25706,20.21311 13.23525,13.30916 20.45363,32.41531 22.80544,60.36325 0.80617,9.58006 0.2599,34.19029 -1.03041,46.42193 -0.56569,5.3625 -1.03002,9.80625 -1.03184,9.875 -0.006,0.21674 -124.67912,-0.0145 -126.25331,-0.23415 l 0,0 z"
       id="path3244"
       inkscape:connector-curvature="0" />
    <path
       style="fill:#ff0000;fill-opacity:1;stroke:#000000;stroke-width:0.5;stroke-opacity:1"
       d="m 117.68572,704.20361 -12.75,-0.27373 -3.40081,-1.61081 c -4.271336,-2.02314 -8.645959,-6.30316 -10.9047,-10.66888 l -1.666126,-3.22031 -0.335776,-18.5 c -0.440809,-24.28689 -0.528824,-83.7783 -0.129597,-87.59789 l 0.312995,-2.99457 11.812004,-2.84775 c 23.16285,-5.58432 38.66664,-7.81152 54.31201,-7.80221 20.83537,0.0124 37.7111,4.51059 50.16375,13.37105 4.31249,3.06848 11.26335,9.98591 14.20183,14.13353 8.27852,11.68501 12.83788,24.87336 15.72566,45.48784 1.60112,11.42963 0.92168,48.03113 -1.13468,61.125 l -0.29447,1.875 -51.58104,-0.10127 c -28.36958,-0.0557 -57.31855,-0.22445 -64.33105,-0.375 z"
       id="path3246"
       inkscape:connector-curvature="0" />
    <path
       style="fill:#ffff00;fill-opacity:1;stroke:#000000;stroke-width:0.5;stroke-opacity:1"
       d="m 129.18572,703.68929 -24.25,-0.25941 -3,-1.5 c -3.676686,-1.83834 -8.947672,-6.99008 -11.000005,-10.75114 l -1.5,-2.74886 -0.316258,-24.5 c -0.436338,-33.80238 -0.492584,-75.16717 -0.10891,-80.09551 l 0.318837,-4.09551 7.303166,-1.76204 c 27.00359,-6.51518 40.38897,-8.47984 58.05317,-8.52083 21.08093,-0.0489 36.16585,3.73219 48.73955,12.21684 16.2855,10.98934 25.64297,27.95532 30.33874,55.00705 1.11509,6.42385 1.17086,7.84924 1.15433,29.5 -0.0156,20.51103 -0.46724,31.26929 -1.53735,36.625 l -0.27473,1.375 -39.83527,-0.11559 c -21.9094,-0.0636 -50.74777,-0.23233 -64.08527,-0.375 z"
       id="path3248"
       inkscape:connector-curvature="0" />
    <path
       style="fill:#ff0000;fill-opacity:1;stroke:#000000;stroke-width:0.5;stroke-opacity:1"
       d="m 213.93572,586.5728 c -4.089,-4.08216 -10.64282,-8.81483 -15.83971,-11.43821 -1.60066,-0.80801 -2.91029,-1.59111 -2.91029,-1.74021 0,-0.79034 3.8401,-9.37814 5.35002,-11.9645 5.11914,-8.76864 9.84936,-11.4708 17.6387,-10.07614 l 3.23872,0.57989 0.65316,2.74812 c 1.46541,6.16556 -0.48994,12.35892 -5.66755,17.95136 -1.49218,1.61173 -2.71305,3.0691 -2.71305,3.2386 0,0.64772 3.09944,0.26629 5.61963,-0.69158 3.57823,-1.36001 5.06157,-1.271 6.95092,0.41713 1.8477,1.65092 2.01498,3.44363 0.60048,6.43524 -1.01947,2.15612 -7.30361,8.67686 -8.27879,8.5905 -0.35324,-0.0313 -2.44225,-1.85388 -4.64224,-4.0502 z"
       id="path3260"
       inkscape:connector-curvature="0" />
    <path
       style="fill:#008080;fill-opacity:1;stroke:#000000;stroke-width:0.5;stroke-opacity:1"
       d="m 235.89918,703.05488 c 1.60566,-12.41908 2.00468,-19.70273 2.02012,-36.875 0.0178,-19.77771 -0.30609,-24.05531 -2.7718,-36.60909 -2.48546,-12.65427 -7.01913,-24.35427 -12.74286,-32.88534 -1.30823,-1.94988 -2.54067,-3.6454 -2.73876,-3.76783 -0.1981,-0.12243 1.61258,-2.19536 4.02374,-4.60651 3.59155,-3.59155 4.52007,-4.84242 5.13726,-6.92074 0.97004,-3.26649 0.62359,-4.9124 -1.47596,-7.01195 -1.43171,-1.43172 -2.05454,-1.69854 -3.96474,-1.69854 -1.24642,0 -2.71389,0.23959 -3.26106,0.53242 -1.92469,1.03007 -1.91981,0.18993 0.0147,-2.53703 2.92993,-4.13011 4.22768,-8.41812 3.85733,-12.74539 -0.16475,-1.925 -0.53191,-4.32244 -0.81592,-5.32763 -0.47206,-1.67081 -0.74072,-1.88226 -3.13095,-2.46424 -3.99365,-0.9724 -8.94844,-0.74878 -11.57426,0.52235 -4.58154,2.21789 -8.96244,8.04797 -12.62766,16.80486 l -2.31684,5.53534 -4.29791,-1.45284 c -22.18616,-7.49969 -52.85638,-6.37332 -91.063625,3.34433 -4.803849,1.22182 -9.12802,2.37298 -9.60927,2.55815 -0.824253,0.31714 -0.87478,-0.80461 -0.871222,-19.34183 0.0021,-11.13744 0.228724,-21.08909 0.522054,-22.92849 1.449858,-9.09174 8.173272,-16.37154 17.320813,-18.75417 2.47581,-0.64486 12.88858,-0.74583 76.91722,-0.74583 70.66359,0 74.21244,0.0426 77.51995,0.93146 8.31466,2.23437 14.32774,8.3224 16.39614,16.60048 0.74158,2.96791 0.82004,10.36159 0.82004,77.26995 0,80.60176 0.13991,76.49515 -2.804,82.30468 -1.69478,3.34449 -6.27714,7.91096 -9.65729,9.62381 -4.32176,2.19001 -8.22409,2.75132 -19.19434,2.76094 l -9.90564,0.009 0.27474,-2.125 z"
       id="path3262"
       inkscape:connector-curvature="0"
       inkscape:export-xdpi="87.378639"
       inkscape:export-ydpi="87.378639" />
    <path
       sodipodi:type="arc"
       style="fill:#008080;fill-opacity:1;stroke:#000000;stroke-opacity:1"
       id="path3266"
       sodipodi:cx="567.75"
       sodipodi:cy="667.61218"
       sodipodi:rx="2.75"
       sodipodi:ry="2.75"
       d="m 570.5,667.61218 c 0,1.51879 -1.23122,2.75 -2.75,2.75 -1.51878,0 -2.75,-1.23121 -2.75,-2.75 0,-1.51878 1.23122,-2.75 2.75,-2.75 1.51878,0 2.75,1.23122 2.75,2.75 z"
       transform="matrix(0.92307692,0,0,0.92307692,-382.07691,-2.3952113)" />
    <path
       sodipodi:type="arc"
       style="fill:#000000;fill-opacity:1;stroke:#000000;stroke-opacity:1"
       id="path3268"
       sodipodi:cx="616.5"
       sodipodi:cy="704.11218"
       sodipodi:rx="1"
       sodipodi:ry="3.25"
       d="m 617.5,704.11218 c 0,1.79493 -0.44772,3.25 -1,3.25 -0.55228,0 -1,-1.45507 -1,-3.25 0,-1.79492 0.44772,-3.25 1,-3.25 0.55228,0 1,1.45508 1,3.25 z"
       transform="matrix(2.3486122,0,0,0.7226499,-1260.1397,134.38948)" />
    <path
       style="fill:#000000;fill-opacity:1;stroke:#000000;stroke-width:0.43412748;stroke-opacity:1"
       d="m 140.67596,615.05585 c -1.33684,-1.33683 -0.0427,-3.267 1.86885,-2.78724 0.95162,0.23884 1.09733,0.4875 0.98242,1.67646 -0.10851,1.12266 -0.34804,1.42092 -1.22329,1.52321 -0.59861,0.0699 -1.3312,-0.11564 -1.62798,-0.41243 z"
       id="path3270"
       inkscape:connector-curvature="0" />
    <path
       style="fill:none;stroke:#000000;stroke-width:1px;stroke-linecap:butt;stroke-linejoin:miter;stroke-opacity:1"
       d="m 125.46283,650.79427 22.14051,-2.17064 c 2.31534,8.39313 1.5918,15.918 -0.86826,22.57463 -5.67277,4.57289 -12.74347,8.10824 -26.48177,9.98493 3.76564,-11.4824 4.89386,-21.20651 5.20952,-30.38892 z"
       id="path3274"
       inkscape:connector-curvature="0"
       sodipodi:nodetypes="ccccc" />
    <path
       style="fill:none;stroke:#000000;stroke-width:1px;stroke-linecap:butt;stroke-linejoin:miter;stroke-opacity:1"
       d="m 125.02871,650.36014 c 5.79618,8.01544 8.0437,18.56564 21.27224,21.27225"
       id="path3276"
       inkscape:connector-curvature="0"
       sodipodi:nodetypes="cc" />
    <path
       style="fill:#ff7f2a;fill-opacity:1;stroke:#000000;stroke-width:0.43412748;stroke-opacity:1"
       d="m 121.46887,679.83949 c 0,-0.24404 0.38654,-1.74163 0.85897,-3.32798 1.66384,-5.58687 3.09901,-14.25754 3.598,-21.73753 0.10117,-1.51659 0.10497,-1.51333 2.01697,1.73651 4.83565,8.21913 7.77869,11.47656 12.39835,13.7228 1.66466,0.80941 3.31431,1.47166 3.6659,1.47166 1.00062,0 -2.04024,2.07739 -5.39016,3.68233 -5.18123,2.48232 -17.14803,5.5893 -17.14803,4.45221 z"
       id="path3278"
       inkscape:connector-curvature="0" />
    <path
       style="fill:#ff6600;fill-opacity:1;stroke:#000000;stroke-width:0.43412748;stroke-opacity:1"
       d="m 143.20193,669.95631 c -5.137,-1.84736 -8.45608,-5.10505 -13.12601,-12.88321 -1.83229,-3.05184 -3.29451,-5.58574 -3.24937,-5.63088 0.0451,-0.0451 4.54352,-0.51406 9.99641,-1.04205 11.22568,-1.08695 10.43916,-1.27524 11.001,2.63356 0.62404,4.34148 0.31363,10.37395 -0.73179,14.22141 -0.53523,1.96985 -1.09827,3.5745 -1.25119,3.56589 -0.15292,-0.009 -1.34049,-0.39774 -2.63905,-0.86472 z"
       id="path3280"
       inkscape:connector-curvature="0" />
    <path
       style="fill:#ff6600;fill-opacity:1;stroke:#000000;stroke-width:0.43412748;stroke-opacity:1"
       d="m 123.24829,674.49845 c 1.1031,-4.52208 1.96377,-9.53119 2.8914,-16.82794 l 0.32164,-2.53006 3.14812,4.79378 c 3.7814,5.75814 6.69458,8.66048 10.68618,10.64644 l 2.98131,1.48331 -1.89589,1.2114 c -3.62141,2.31394 -15.18988,6.24386 -18.38,6.24386 l -0.97752,0 1.22476,-5.02079 z"
       id="path3282"
       inkscape:connector-curvature="0" />
  </g>
</svg>
