<?xml version="1.0" encoding="UTF-8" standalone="no"?>
<!-- Created with Inkscape (http://www.inkscape.org/) -->

<svg
   xmlns:dc="http://purl.org/dc/elements/1.1/"
   xmlns:cc="http://creativecommons.org/ns#"
   xmlns:rdf="http://www.w3.org/1999/02/22-rdf-syntax-ns#"
   xmlns:svg="http://www.w3.org/2000/svg"
   xmlns="http://www.w3.org/2000/svg"
   xmlns:sodipodi="http://sodipodi.sourceforge.net/DTD/sodipodi-0.dtd"
   xmlns:inkscape="http://www.inkscape.org/namespaces/inkscape"
   id="svg3065"
   version="1.1"
   inkscape:version="0.48.4 r9939"
   width="72.703529"
   height="88.715775"
   sodipodi:docname="logo.svg">
  <metadata
     id="metadata3071">
    <rdf:RDF>
      <cc:Work
         rdf:about="">
        <dc:format>image/svg+xml</dc:format>
        <dc:type
           rdf:resource="http://purl.org/dc/dcmitype/StillImage" />
        <dc:title></dc:title>
      </cc:Work>
    </rdf:RDF>
  </metadata>
  <defs
     id="defs3069" />
  <sodipodi:namedview
     pagecolor="#ffffff"
     bordercolor="#666666"
     borderopacity="1"
     objecttolerance="10"
     gridtolerance="10"
     guidetolerance="10"
     inkscape:pageopacity="0"
     inkscape:pageshadow="2"
     inkscape:window-width="1855"
     inkscape:window-height="1056"
     id="namedview3067"
     showgrid="false"
     inkscape:zoom="3.9328606"
     inkscape:cx="75.587732"
     inkscape:cy="27.622674"
     inkscape:window-x="65"
     inkscape:window-y="24"
     inkscape:window-maximized="1"
     inkscape:current-layer="svg3065"
     fit-margin-top="0"
     fit-margin-left="0"
     fit-margin-right="0"
     fit-margin-bottom="0" />
  <path
     style="fill:#f6f42a;fill-opacity:1;stroke:#f6f32a;stroke-width:1.81220591000000009px;stroke-linecap:butt;stroke-linejoin:miter;stroke-opacity:1"
     d="m 0.90610296,55.741846 0,-15.566801 3.32974404,0 0,-3.582837 3.222334,0 0,-4.077019 2.148221,0 0,-6.053755 3.222334,0 0,-1.729646 1.718577,0 0,-7.289215 2.900099,0 0,-3.953474 3.222334,0 0,-2.347376 3.759389,0 0,-1.9767362 3.544567,0 0,-1.85319 18.045064,0 0,2.100282 1.933401,0 0,1.7296442 5.048321,0 0,1.976738 1.611166,0 0,3.706382 4.189034,0 0,1.359005 1.933399,0 0,6.671486 1.396345,0 0,1.729646 1.825988,0 0,5.806662 1.396344,0 0,3.706382 3.007511,0 0,3.829929 3.437155,0 0,16.184531 -6.659487,0 0,5.806664 -3.437155,0 0,5.188933 -3.222334,0 0,4.07702 -3.974211,0 0,1.976737 -1.825988,0 0,3.70638 -32.11592,0 0,-2.47092 -2.470456,0 0,-2.965105 -4.296443,0 0,-4.324112 -3.007511,0 0,-2.100282 -1.611167,0 0,-4.200566 -1.611166,0 0,-4.941841 z"
     id="path3863"
     inkscape:connector-curvature="0" />
  <path
     style="fill:#e51c23;fill-opacity:1;stroke:#e51c21;stroke-width:0.89936167px;stroke-linecap:butt;stroke-linejoin:miter;stroke-opacity:1"
     d="m 33.905641,0.44968084 0,5.61521896 6.005656,0 0,-2.765704 -2.963831,0 0,-2.84951496 z"
     id="path3881"
     inkscape:connector-curvature="0" />
  <path
     style="fill:#000000;fill-opacity:1;stroke:#000000;stroke-width:1px;stroke-linecap:butt;stroke-linejoin:miter;stroke-opacity:1"
     d="m 49.208931,77.981497 1.907009,0 0,5.721027 4.068285,0 0,4.322553 -10.04358,0 0,-4.322553 4.19542,0 z"
     id="path3887"
     inkscape:connector-curvature="0" />
  <path
     style="fill:#000000;fill-opacity:1;stroke:#000000;stroke-width:1px;stroke-linecap:butt;stroke-linejoin:miter;stroke-opacity:1"
     d="m 22.065838,78.172197 1.907009,0 0,5.721027 4.068285,0 0,4.322553 -10.04358,0 0,-4.322553 4.19542,0 z"
     id="path3887-2"
     inkscape:connector-curvature="0" />
  <path
     style="fill:#000000;fill-opacity:1;stroke:#000000;stroke-width:0.83690369px;stroke-linecap:butt;stroke-linejoin:miter;stroke-opacity:1"
     d="m 46.784268,25.554847 0,3.235957 3.3095,0 0,-3.309501 z"
     id="path3927-7"
     inkscape:connector-curvature="0" />
  <path
     style="fill:#000000;fill-opacity:1;stroke:#000000;stroke-width:0.83690369px;stroke-linecap:butt;stroke-linejoin:miter;stroke-opacity:1"
     d="m 22.871596,25.554847 0,3.235957 3.3095,0 0,-3.309501 z"
     id="path3927-7-6"
     inkscape:connector-curvature="0" />
  <path
     style="fill:#ff5722;fill-opacity:1;stroke:#ff5722;stroke-width:0.89556861px;stroke-linecap:butt;stroke-linejoin:miter;stroke-opacity:1"
     d="m 33.433009,37.080598 0,5.874471 6.037651,0 0,-6.037651 z"
     id="path3967"
     inkscape:connector-curvature="0" />
  <rect
     style="fill:#ff00ff;fill-opacity:1;stroke:#ff7f2a;stroke-opacity:1"
     id="rect4122"
     width="0.71917808"
     height="5.933219"
     x="9.7089043"
     y="25.428102"
     rx="1.7798717" />
  <rect
     style="fill:#ff00ff;fill-opacity:1;stroke:#ff7f2a;stroke-opacity:1"
     id="rect4124"
     width="0.53938359"
     height="6.1130137"
     x="63.647259"
     y="24.88872"
     rx="1.7798717" />
  <rect
     style="fill:#ff00ff;fill-opacity:1;stroke:#ff7f2a;stroke-opacity:1"
     id="rect4160"
     width="32.722603"
     height="0.53938359"
     x="20.136986"
     y="76.489746"
     rx="1.7798717" />
</svg>
