<?xml version="1.0" encoding="utf-8"?>
<!-- Generator: Adobe Illustrator 16.0.4, SVG Export Plug-In . SVG Version: 6.00 Build 0)  -->
<!DOCTYPE svg PUBLIC "-//W3C//DTD SVG 1.1//EN" "http://www.w3.org/Graphics/SVG/1.1/DTD/svg11.dtd">
<svg version="1.1" id="Layer_1" xmlns="http://www.w3.org/2000/svg" xmlns:xlink="http://www.w3.org/1999/xlink" x="0px" y="0px"
	 width="50px" height="50px" viewBox="0 0 50 50" enable-background="new 0 0 50 50" xml:space="preserve">
<path d="M26.088,21.669c-1.691-1.573-3.6-3.925-3.669-7.454c0.854,2.875,3.774,6.969,11.625,12.336c0,0-8.619-12.066-5.702-18.83
	c0,0-1.61-0.829-4.823,1.233c0.002-0.005,0.004-0.011,0.006-0.017c0,0-5.359,3.591-4.464,7.513c0.176,0.775,0.053,1.712-1.812,2.609
	c-0.374,0.179-1.039,0.397-0.862,1.414c0,0,0.181,0.724,0.542,1.001c0.018,0.014,0.039,0.022,0.055,0.038
	c0.464,0.442-0.342,0.316-0.596,0.397c-0.432,0.139-0.442,0.995,0.243,1.746c0,0-1.105,1.106-0.486,2.078
	c0,0,0.154,0.176,0.796,0.088c0,0-0.494,3.488,2.188,3.403c1.578-0.051,5.017-1.348,6.276,0.686c0,0,4.266,5.238-0.906,12.531
	c0,0,5.966-2.209,6.585-8.974C31.083,33.47,32.984,28.077,26.088,21.669z"/>
</svg>
